<svg xmlns="http://www.w3.org/2000/svg" width="139" height="86" fill="none"><style>.B{fill:#f5f5f5}.C{fill:#e4e4e4}.D{color-interpolation-filters:sRGB}.E{flood-opacity:0}</style><g filter="url(#A)"><path d="M125.165 12.442 93.997 1.098c-.868-.316-1.827.132-2.324 1.497L70.927 59.592c-.135.37.313 1.33 1.18 1.646l43.037 15.664c.867.316 1.827-.132 1.962-.502l16.425-45.129c.272-.747.26-1.024.148-1.266l-7.948-17.045a1 1 0 0 0-.567-.519z" class="B"/><path fill="#359c8e" d="M115.145 76.902 72.108 61.238a1.67 1.67 0 0 1-.999-2.143l6.073-16.686 46.179 16.808-6.073 16.686a1.67 1.67 0 0 1-2.143.999"/><path d="m125.659 12.805-4.632 12.725 12.725 4.632z" class="C"/><path fill="#26b99a" d="M98.349 25.79a5.223 5.223 0 1 0 3.571-9.816 5.223 5.223 0 0 0-3.571 9.816M77.181 42.409l11.813 4.3 34.365 12.508 4.3-11.813-7.026-14.111-15.771 8.246-3.745-8.032z"/></g><g filter="url(#B)"><path d="M36.704 5.984 5.537 17.328c-.868.316-1.315 1.275-.818 2.64l20.746 56.998c.135.371 1.094.818 1.962.502l43.037-15.664c.868-.316 1.315-1.275 1.18-1.646L55.217 15.03c-.272-.747-.459-.952-.7-1.065L37.473 6.017a1 1 0 0 0-.769-.033" class="B"/><path fill="#dfa000" d="M70.463 61.804 27.426 77.469a1.67 1.67 0 0 1-2.143-.999L19.21 59.784l46.179-16.808 6.073 16.686a1.67 1.67 0 0 1-.999 2.143z"/><path d="m37.316 5.945 4.631 12.725 12.725-4.632z" class="C"/><path fill="#ffd465" d="M24.742 33.446a5.222 5.222 0 1 0-3.573-9.814 5.222 5.222 0 0 0 3.573 9.814M19.21 59.784l11.813-4.3 34.366-12.508-4.3-11.813-14.453-6.294-6.781 16.455-8.032-3.745z"/></g><g filter="url(#C)"><path d="M80.269 7H47.101c-.923 0-1.672.749-1.672 2.201v60.656c0 .394.749 1.143 1.672 1.143H92.9c.923 0 1.672-.749 1.672-1.143V21.832c0-.795-.106-1.051-.294-1.24L80.98 7.294A1 1 0 0 0 80.269 7" class="B"/><path fill="#7955dd" d="M92.9 71H47.101a1.67 1.67 0 0 1-1.672-1.672V51.571h49.143v17.757A1.67 1.67 0 0 1 92.9 71"/><path d="M80.857 7.173v13.542h13.542z" class="C"/><path fill="#9e7aff" d="M59.636 28.714a5.222 5.222 0 1 0 0-10.444 5.222 5.222 0 0 0 0 10.444M45.429 51.571h49.143V39L83.143 28.143l-12 13.143-6.266-6.266-19.448 16.552z"/></g><defs><filter id="A" width="70.851" height="84.008" x="66.904" y="1.001" class="D" filterUnits="userSpaceOnUse"><feFlood class="E" result="A"/><feColorMatrix in="SourceAlpha" result="B" values="0 0 0 0 0 0 0 0 0 0 0 0 0 0 0 0 0 0 127 0"/><feOffset dy="4"/><feGaussianBlur stdDeviation="2"/><feComposite in2="B" operator="out"/><feColorMatrix values="0 0 0 0 0 0 0 0 0 0 0 0 0 0 0 0 0 0 0.25 0"/><feBlend in2="A"/><feBlend in="SourceGraphic"/></filter><filter id="B" width="75.155" height="79.652" x=".511" y="5.924" class="D" filterUnits="userSpaceOnUse"><feFlood class="E" result="A"/><feColorMatrix in="SourceAlpha" result="B" values="0 0 0 0 0 0 0 0 0 0 0 0 0 0 0 0 0 0 127 0"/><feOffset dy="4"/><feGaussianBlur stdDeviation="2"/><feComposite in2="B" operator="out"/><feColorMatrix values="0 0 0 0 0 0 0 0 0 0 0 0 0 0 0 0 0 0 0.25 0"/><feBlend in2="A"/><feBlend in="SourceGraphic"/></filter><filter id="C" width="57.143" height="72" x="41.429" y="7" class="D" filterUnits="userSpaceOnUse"><feFlood class="E" result="A"/><feColorMatrix in="SourceAlpha" result="B" values="0 0 0 0 0 0 0 0 0 0 0 0 0 0 0 0 0 0 127 0"/><feOffset dy="4"/><feGaussianBlur stdDeviation="2"/><feComposite in2="B" operator="out"/><feColorMatrix values="0 0 0 0 0 0 0 0 0 0 0 0 0 0 0 0 0 0 0.25 0"/><feBlend in2="A"/><feBlend in="SourceGraphic"/></filter></defs></svg>