<svg width="60" height="63" viewBox="0 0 60 63" fill="none" xmlns="http://www.w3.org/2000/svg">
<path d="M5.68629 45.6863V57H17" fill="black"/>
<path d="M5.68629 45.6863V57H17" stroke="#5750FA" stroke-width="3.33" stroke-linecap="round" stroke-linejoin="round"/>
<path d="M54.3137 45.6863V57H43" fill="black"/>
<path d="M54.3137 45.6863V57H43" stroke="#5750FA" stroke-width="3.33" stroke-linecap="round" stroke-linejoin="round"/>
<path d="M54.3137 17.3137V6H43" fill="black"/>
<path d="M54.3137 17.3137V6H43" stroke="#5750FA" stroke-width="3.33" stroke-linecap="round" stroke-linejoin="round"/>
<path d="M5.68629 17.3137V6H17" fill="black"/>
<path d="M5.68629 17.3137V6H17" stroke="#5750FA" stroke-width="3.33" stroke-linecap="round" stroke-linejoin="round"/>
<path d="M12.1331 42.2116V17.6568C12.1331 15.0862 12.373 14.3484 12.7164 13.6321C13.0771 12.8801 13.5884 12.32 14.22 11.9421C14.8026 11.5936 15.395 11.3333 17.6549 11.3333H42.4447C44.7027 11.3333 45.2971 11.5936 45.8796 11.9421C46.5112 12.32 47.0225 12.8801 47.3832 13.6321C47.7267 14.3484 47.9665 15.0862 47.9665 17.6568V32.3087L40.865 24.9873L40.8648 24.9872C40.3894 24.4972 39.8144 24.1179 39.1747 23.8865C38.5343 23.6548 37.8515 23.5795 37.1766 23.6694C36.502 23.7592 35.8619 24.0103 35.2998 24.3957C34.7384 24.7807 34.2699 25.2889 33.9187 25.877L33.9185 25.8773L27.9674 35.8479L24.2203 33.1582L24.2201 33.1581C23.2847 32.4869 22.1385 32.2062 21.0031 32.399C19.871 32.5913 18.8758 33.232 18.1844 34.1526L18.1843 34.1527L12.1331 42.2116ZM47.3832 49.3679L47.3806 49.3734C47.031 50.111 46.5027 50.6894 45.8855 51.0543L45.8796 51.0579C45.297 51.4064 44.7046 51.6667 42.4447 51.6667H17.6549C15.5611 51.6667 14.8987 51.4433 14.3492 51.1332L22.2045 40.6726L26.1622 43.5141L26.1624 43.5142C27.1719 44.2387 28.4221 44.5049 29.633 44.2225C30.8383 43.9413 31.8522 43.1535 32.4887 42.0871C32.4887 42.0871 32.4888 42.087 32.4888 42.087L38.179 32.5546L47.9665 42.6418V45.3432C47.9665 47.9116 47.7266 48.6517 47.3832 49.3679ZM21.4686 15.8337C18.2424 15.8337 15.8831 18.5396 15.8831 21.9164C15.8831 25.2744 18.2253 28.0565 21.4686 28.0565C24.7533 28.0565 27.1054 25.2854 27.1054 21.9164C27.1054 18.5283 24.7336 15.8337 21.4686 15.8337Z" fill="#5750FA" stroke="#5750FA" stroke-width="2.66667"/>
</svg>
