<svg xmlns="http://www.w3.org/2000/svg" width="504" height="418" fill="none" xmlns:v="https://vecta.io/nano"><style><![CDATA[.B{fill:#163b44}.C{fill:#f27261}.D{stroke-miterlimit:10}.E{fill:#f8ad89}.F{fill:#f4d6b0}.G{stroke-width:3}.H{stroke:#163b44}.I{fill:#248a9c}]]></style><path d="M486.652 8H311.348C306.737 8 303 11.961 303 16.846V65.5c0 4.886 3.737 8.846 8.348 8.846h175.304c4.611 0 8.348-3.961 8.348-8.846V16.846C495 11.961 491.263 8 486.652 8z" class="B"/><path d="M334.014 52.231V32.93h3.299v8.171h8.44V32.93h3.308v19.301h-3.308v-8.199h-8.44v8.199h-3.299zm27.2-6.088v-8.388h3.219v14.476h-3.122v-2.573h-.142c-.308.81-.815 1.473-1.52 1.989s-1.563.773-2.588.773c-.896 0-1.687-.21-2.375-.631-.682-.427-1.215-1.046-1.601-1.857-.385-.817-.578-1.803-.578-2.959v-9.217h3.22v8.689c0 .917.237 1.646.711 2.186s1.097.811 1.868.811c.474 0 .934-.123 1.378-.367s.809-.609 1.094-1.093c.291-.49.436-1.103.436-1.838zm6.529 6.088V37.755h3.078v2.46h.16c.284-.829.756-1.477 1.414-1.941.658-.471 1.444-.707 2.356-.707.925 0 1.705.239 2.34.716.64.471 1.091 1.115 1.351 1.932h.142c.303-.804.813-1.445 1.53-1.923.723-.484 1.58-.726 2.57-.726 1.257 0 2.283.421 3.077 1.263s1.192 2.07 1.192 3.685v9.716h-3.228v-9.189c0-.898-.225-1.555-.676-1.97-.451-.421-1.002-.631-1.654-.631-.777 0-1.384.258-1.823.773-.433.509-.65 1.172-.65 1.988v9.028h-3.157v-9.33c0-.748-.213-1.344-.64-1.79-.421-.446-.972-.669-1.654-.669a2.24 2.24 0 0 0-1.263.377c-.38.245-.682.594-.907 1.046-.225.446-.338.968-.338 1.564v8.802h-3.22zm26.407.292c-.866 0-1.645-.164-2.339-.49a3.88 3.88 0 0 1-1.636-1.47c-.397-.647-.596-1.445-.596-2.394 0-.817.142-1.492.427-2.026s.673-.961 1.165-1.282a5.69 5.69 0 0 1 1.663-.726c.622-.17 1.266-.292 1.93-.367l1.947-.236c.498-.075.86-.188 1.085-.339.231-.157.347-.399.347-.726v-.056c0-.71-.198-1.26-.596-1.649s-.969-.584-1.716-.584c-.789 0-1.414.182-1.877.547-.456.364-.764.795-.925 1.291l-3.006-.452c.238-.88.629-1.615 1.175-2.205.545-.597 1.212-1.043 2.001-1.338.788-.302 1.659-.452 2.614-.452a8.07 8.07 0 0 1 1.966.245c.652.163 1.248.434 1.787.811.539.371.972.876 1.298 1.517.333.641.499 1.442.499 2.403v9.688h-3.095v-1.989h-.107c-.196.402-.471.779-.827 1.131-.35.346-.792.625-1.325.839-.528.207-1.148.311-1.859.311zm.836-2.507c.646 0 1.206-.135 1.681-.405.474-.276.839-.641 1.094-1.093a2.92 2.92 0 0 0 .391-1.48v-1.706c-.101.088-.273.17-.516.245-.237.075-.504.141-.8.198l-.881.151-.756.113c-.48.069-.91.182-1.289.339s-.679.377-.898.66c-.22.277-.329.635-.329 1.074 0 .628.216 1.103.649 1.423s.984.481 1.654.481zm12.833-6.267v8.482H404.6V37.755h3.077v2.46h.16a4.09 4.09 0 0 1 1.503-1.932c.694-.477 1.55-.716 2.57-.716.943 0 1.764.214 2.463.641.706.427 1.252 1.046 1.637 1.857.391.81.584 1.794.578 2.95v9.217h-3.219v-8.689c0-.968-.238-1.725-.712-2.271-.468-.547-1.117-.82-1.948-.82-.563 0-1.064.132-1.503.396-.433.258-.774.631-1.022 1.121s-.365 1.084-.365 1.781zm12.042 8.482V37.755h3.219v14.476h-3.219zm1.618-16.53a1.82 1.82 0 0 1-1.316-.537c-.368-.364-.552-.801-.552-1.31 0-.515.184-.952.552-1.31.368-.364.806-.547 1.316-.547.516 0 .954.182 1.316.547.368.358.552.795.552 1.31 0 .509-.184.946-.552 1.31a1.8 1.8 0 0 1-1.316.537zm4.733 16.53v-2.168l7.044-9.358v-.122h-6.812v-2.827h10.752v2.328l-6.706 9.198v.123h6.937v2.827h-11.215zm18.172.292c-.866 0-1.646-.164-2.339-.49a3.89 3.89 0 0 1-1.637-1.47c-.397-.647-.595-1.445-.595-2.394 0-.817.142-1.492.426-2.026s.673-.961 1.165-1.282 1.047-.562 1.664-.726c.622-.17 1.266-.292 1.929-.367l1.948-.236c.498-.075.86-.188 1.085-.339.231-.157.347-.399.347-.726v-.056c0-.71-.199-1.26-.596-1.649s-.969-.584-1.717-.584c-.788 0-1.414.182-1.876.547-.456.364-.765.795-.925 1.291l-3.006-.452c.237-.88.629-1.615 1.174-2.205.546-.597 1.213-1.043 2.001-1.338.789-.302 1.66-.452 2.615-.452.658 0 1.313.082 1.965.245a5.38 5.38 0 0 1 1.788.811c.539.371.972.876 1.298 1.517.332.641.498 1.442.498 2.403v9.688h-3.095v-1.989h-.106a4.15 4.15 0 0 1-.828 1.131c-.349.346-.791.625-1.325.839-.527.207-1.147.311-1.858.311zm.836-2.507c.646 0 1.206-.135 1.68-.405a2.9 2.9 0 0 0 1.094-1.093 2.91 2.91 0 0 0 .392-1.48v-1.706c-.101.088-.273.17-.516.245-.237.075-.504.141-.8.198l-.881.151-.756.113c-.48.069-.91.182-1.289.339s-.679.377-.899.66c-.219.277-.329.635-.329 1.074 0 .628.217 1.103.65 1.423s.984.481 1.654.481zm9.613 2.215V37.755h3.122v2.413h.142c.249-.836.676-1.48 1.281-1.932.611-.459 1.307-.688 2.09-.688l.595.028c.226.013.412.035.561.066v3.138c-.136-.05-.353-.094-.649-.132-.291-.044-.573-.066-.845-.066-.587 0-1.115.135-1.583.405-.463.264-.827.631-1.094 1.103s-.4 1.015-.4 1.63v8.51h-3.22z" fill="#fff"/><path d="M425.939 81.071v9.495l-3.71-.845V78.928a28.94 28.94 0 0 0-4.323-1.651v11.441l-3.71-.845V76.491l-5.713-.708v10.832l-3.711-.845V75.469 61.433c-.048-1.309-.582-2.545-1.485-3.439s-2.102-1.375-3.338-1.338c-1.235-.038-2.435.443-3.338 1.338s-1.436 2.13-1.485 3.439v25.418 5.091l-3.71 1.966v-10.34l-4.323-4.698c-.984-1.042-2.318-1.627-3.71-1.627s-2.725.585-3.71 1.627c-.989 1.076-1.543 2.518-1.543 4.02s.554 2.944 1.543 4.02l11.131 13.957c.308 2.924 1.186 5.749 2.578 8.296.996 2.074 2.392 3.903 4.1 5.366v5.033h26.787v-6.467c3.745-4.647 5.729-10.602 5.565-16.71V84.59c-1.138-1.358-2.449-2.542-3.895-3.519z" class="C"/><path d="M132 405.625c0 6.806-5.569 12.375-12.375 12.375H12.375C5.569 418 0 412.431 0 405.625v-107.25C0 291.569 5.569 286 12.375 286h107.25c6.806 0 12.375 5.569 12.375 12.375v107.25z" class="B"/><g class="C"><path d="M78.007 383.053a1.88 1.88 0 0 0-1.879-1.878 1.88 1.88 0 0 0-1.879 1.878h3.757zm34.193 0a1.88 1.88 0 0 0-1.879-1.878 1.88 1.88 0 0 0-1.878 1.878h3.757zm-20.456 1.35a1.88 1.88 0 0 0 .326 2.637 1.88 1.88 0 0 0 2.637-.326l-2.963-2.311zm12.732-10.214a1.88 1.88 0 0 0-.326-2.637 1.88 1.88 0 0 0-2.637.326l2.963 2.311zm-12.732 12.525a1.88 1.88 0 0 0 2.637.326 1.88 1.88 0 0 0 .326-2.637l-2.963 2.311zm-6.806-14.836a1.88 1.88 0 0 0-2.637-.326 1.88 1.88 0 0 0-.326 2.637l2.963-2.311zm6.409 13.68a1.88 1.88 0 0 0 1.879 1.879 1.88 1.88 0 0 0 1.879-1.879h-3.757zm3.757-27.554a1.88 1.88 0 0 0-1.879-1.879 1.88 1.88 0 0 0-1.879 1.879h3.757zM74.25 383.053v2.505h3.757v-2.505H74.25zm0 2.505c0 5.143 4.077 9.394 9.206 9.394v-3.758c-2.964 0-5.448-2.478-5.448-5.636H74.25zm9.206 9.394h19.538v-3.758H83.456v3.758zm19.538 0c5.129 0 9.206-4.251 9.206-9.394h-3.757c0 3.158-2.484 5.636-5.449 5.636v3.758zm9.206-9.394v-2.505h-3.757v2.505h3.757zm-17.494 1.156l9.77-12.525-2.963-2.311-9.769 12.525 2.963 2.311zm0-2.311l-9.769-12.525-2.963 2.311 9.769 12.525 2.963-2.311zm.397 1.155v-27.554h-3.757v27.554h3.757z"/><path fill-rule="evenodd" d="M61 340.261v-31.304L59.05 307H33.7l-1.95 1.957v7.826h-7.8L22 318.739v31.304L23.95 352H49.3l1.95-1.957v-7.826h7.8l1.95-1.956zm-9.75-1.957v-19.565l-1.95-1.956H35.65v-5.87H57.1v27.391h-5.85zM25.9 320.696h21.45v27.391H25.9v-27.391z"/></g><path d="M143 119.625c0 6.806-5.569 12.375-12.375 12.375H23.375C16.569 132 11 126.431 11 119.625V12.375C11 5.569 16.569 0 23.375 0h107.25C137.431 0 143 5.569 143 12.375v107.25z" class="B"/><g stroke="#f27261" stroke-width="4" class="D"><path d="M55.37 22.101c0-2.052-1.749-3.73-3.886-3.73s-3.886 1.679-3.886 3.73H41.77v7.461h19.429v-7.461H55.37z"/><path d="M41.771 22.101H34V61.27h15.543m19.428-22.382V22.101h-7.772"/><path d="M72.857 38.888H49.543V65h23.315V38.888z" class="B"/></g><path d="M503.651 385.203l-23.186-21.559v-20.238c.124-1.705.155-3.404 0-5.103v-43.456c0-5.235-5.744-4.787-5.756-4.787-10.031.115-16.812-1.263-24.891-2.548-17.974-2.87-37.578-2.377-52.005 7.909h-1.89c-15.071-10.011-30.24-10.837-50.931-7.875-9.968 1.423-23.902 2.583-23.902 2.583-2.273.218-6.09.861-6.09 4.534v113.396c0 2.365 2.088 4.282 4.645 4.282h59.528c-.161.436-.297.884-.297 1.377 0 2.365 2.076 4.282 4.645 4.282h28.386c2.57 0 4.645-1.917 4.645-4.282 0-.493-.136-.941-.309-1.377h59.577c2.569 0 4.645-1.917 4.645-4.282v-23.281l11.821 10.986c2.459 2.274 13.836-8.265 11.365-10.561z" class="B"/><path d="M329.118 404.294l6.609-2.549c20.283-7.266 40.38-12.226 57.069 2.549h-63.678z" class="F"/><path d="M393.563 397.337c-18.48-13.638-41.048-7.909-60.256-1.022l-9.08 3.502V297.924c6.659-.207 12.057-.988 17.071-1.86l4.744-.792c19.703-3.053 33.105-1.826 46.199 6.865l1.322.872v94.328z" class="C"/><path d="M463.801 358.72c-10.413 9.677-27.373 9.688-37.787 0s-10.413-25.451 0-35.128c5.04-4.683 11.748-7.255 18.887-7.255 7.153 0 13.86 2.572 18.9 7.255 10.414 9.689 10.414 25.439 0 35.128zm-62.862 45.574c15.503-15.05 36.799-9.919 58.837-2.342l6.225 2.342h-65.062z" class="F"/><path d="M461.972 396.442c-20.591-7.083-44.482-13.007-62.084.953v-94.156h.074l1.692-1.217c12.81-9.138 30.536-9.425 47.089-6.785l3.323.54c5.941.976 11.822 1.814 19.122 1.998v20.978c-.352-.355-.618-.763-.988-1.108-13.972-12.971-36.614-12.983-50.585 0s-13.971 34.037 0 47.021c12.86 11.95 33.044 12.869 47.076 2.824l2.026 1.883c-1.173 1.515-1.791 2.812-1.235 3.341l3.706 3.443v23.74l-9.216-3.455z" class="E"/><use href="#D" class="F"/><g class="G"><use href="#D" stroke-linecap="round" class="D H"/><path d="M356.873 319.892h-6.754l-1.35 18.829h8.104v-18.829z" stroke="#f8ad89" class="E"/></g><use href="#E" class="E"/><use href="#E" class="D G H"/><use href="#F" class="E"/><g class="D G H"><use href="#F"/><path d="M358.423 339.593h-10.889c-.872 0-1.579.657-1.579 1.468v1.331c0 .811.707 1.468 1.579 1.468h10.889c.873 0 1.58-.657 1.58-1.468v-1.331c0-.811-.707-1.468-1.58-1.468z"/><path d="M356.503 343.86v2.24c0 1.341-1.353 2.419-3.524 2.419-2.387 0-3.523-1.057-3.523-2.419v-2.24"/></g><path d="M88.472 86.47a1.88 1.88 0 0 1-1.879 1.879 1.88 1.88 0 0 1-1.879-1.879h3.757zm34.192 0a1.88 1.88 0 0 1-1.878 1.879 1.88 1.88 0 0 1-1.879-1.879h3.757zm-20.456-1.349a1.88 1.88 0 0 1 .326-2.637 1.88 1.88 0 0 1 2.637.326l-2.963 2.311zm12.732 10.214a1.88 1.88 0 0 1-.326 2.637 1.88 1.88 0 0 1-2.637-.326l2.963-2.311zM102.208 82.81a1.88 1.88 0 0 1 2.637-.326 1.88 1.88 0 0 1 .326 2.637l-2.963-2.311zm-6.807 14.836a1.88 1.88 0 0 1-2.637.326 1.88 1.88 0 0 1-.326-2.637l2.963 2.311zm6.41-13.68a1.88 1.88 0 0 1 1.878-1.879 1.88 1.88 0 0 1 1.879 1.879h-3.757zm3.757 27.554a1.88 1.88 0 0 1-1.879 1.879 1.88 1.88 0 0 1-1.878-1.879h3.757zM84.714 86.47v-2.505h3.757v2.505h-3.757zm0-2.505c0-5.143 4.077-9.394 9.206-9.394v3.758c-2.964 0-5.448 2.478-5.448 5.636h-3.757zm9.206-9.394h19.539v3.758H93.92v-3.758zm19.539 0c5.128 0 9.205 4.251 9.205 9.394h-3.757c0-3.158-2.484-5.636-5.448-5.636v-3.758zm9.205 9.394v2.505h-3.757v-2.505h3.757zm-17.493-1.156l9.769 12.525-2.963 2.311-9.769-12.525 2.963-2.311zm0 2.311l-9.77 12.525-2.963-2.311 9.769-12.525 2.963 2.311zm.397-1.156v27.554h-3.757V83.965h3.757z" class="C"/><g clip-path="url(#A)"><path d="M242.698 28.095a5.51 5.51 0 0 0-1.623 3.924 5.51 5.51 0 0 0 1.623 3.924l11.765 11.764h-57.817c-3.06 0-5.549 2.489-5.549 5.549s2.489 5.549 5.549 5.549h57.816l-11.764 11.764a5.56 5.56 0 0 0 0 7.847 5.51 5.51 0 0 0 7.847 0l21.237-21.237a5.51 5.51 0 0 0 0-7.847l-21.237-21.237a5.51 5.51 0 0 0-7.847 0z" class="B"/><g class="I"><path d="M251.447 79.317a6.78 6.78 0 0 1-9.65 0c-2.661-2.661-2.661-6.99 0-9.65l9.588-9.588h-54.739c-3.762 0-6.823-3.061-6.823-6.824a6.78 6.78 0 0 1 6.823-6.825h54.739l-9.588-9.588c-1.288-1.288-1.997-3.001-1.997-4.825a6.78 6.78 0 0 1 1.996-4.825 6.78 6.78 0 0 1 9.651 0l21.237 21.237a6.78 6.78 0 0 1 .001 9.65l-21.238 21.238zM243.6 71.47a4.28 4.28 0 0 0 0 6.044c.807.807 1.88 1.252 3.022 1.252s2.215-.445 3.022-1.252l21.237-21.237c.808-.808 1.252-1.881 1.252-3.022s-.445-2.215-1.252-3.022l-21.237-21.237c-.807-.807-1.88-1.252-3.022-1.252s-2.215.445-3.022 1.252h0 0c-.806.806-1.25 1.879-1.25 3.022s.444 2.216 1.25 3.022l11.764 11.764c.365.365.474.913.277 1.389s-.663.787-1.178.787h-57.817c-1.139 0-2.212.445-3.02 1.253s-1.254 1.881-1.254 3.02a4.28 4.28 0 0 0 4.274 4.274h57.817c.515 0 .98.311 1.178.787s.088 1.025-.277 1.389L243.6 71.47zm13.122-30.042c-.498.498-1.305.498-1.803 0l-.339-.339c-.498-.498-.498-1.305 0-1.803s1.305-.498 1.803 0l.339.339c.498.498.498 1.305 0 1.803zm12.226 12.226c-.498.498-1.305.498-1.803 0l-8.92-8.92c-.498-.498-.498-1.305 0-1.803s1.305-.498 1.803 0l8.92 8.92c.498.498.498 1.305 0 1.803z"/></g></g><g clip-path="url(#B)"><path d="M225.812 329.094c1.046 1.047 1.623 2.44 1.623 3.924s-.577 2.877-1.623 3.924l-11.765 11.764h57.817c3.06 0 5.549 2.489 5.549 5.549s-2.489 5.549-5.549 5.549h-57.817l11.765 11.764a5.56 5.56 0 0 1 0 7.848c-1.048 1.048-2.442 1.625-3.924 1.625a5.51 5.51 0 0 1-3.923-1.625l-21.237-21.237a5.51 5.51 0 0 1 0-7.848l21.236-21.237c1.048-1.048 2.442-1.625 3.924-1.625s2.876.577 3.924 1.625z" class="B"/><g class="I"><path d="M217.063 380.317c1.289 1.289 3.002 1.999 4.825 1.999a6.78 6.78 0 0 0 4.825-1.999c2.661-2.661 2.66-6.99 0-9.65l-9.588-9.588h54.739c3.762 0 6.823-3.061 6.823-6.824 0-1.82-.71-3.533-2-4.823s-3.003-2.001-4.823-2.001h-54.739l9.588-9.588a6.77 6.77 0 0 0 1.996-4.825 6.77 6.77 0 0 0-1.996-4.825c-1.289-1.289-3.002-1.999-4.825-1.999s-3.536.71-4.825 1.999l-21.237 21.237c-1.289 1.288-1.999 3.002-1.999 4.825a6.78 6.78 0 0 0 1.998 4.825l21.238 21.237zm7.847-7.847a4.28 4.28 0 0 1 0 6.044c-.807.807-1.88 1.252-3.022 1.252s-2.215-.445-3.022-1.252l-21.237-21.237c-.808-.808-1.252-1.88-1.252-3.022a4.24 4.24 0 0 1 1.252-3.022l21.237-21.237c.807-.807 1.88-1.252 3.022-1.252s2.215.445 3.022 1.252h0 0c.806.806 1.25 1.879 1.25 3.022s-.444 2.216-1.25 3.022l-11.765 11.765c-.364.364-.473.913-.276 1.389s.662.787 1.178.787h57.817c1.139 0 2.211.445 3.02 1.254a4.24 4.24 0 0 1 1.253 3.02 4.28 4.28 0 0 1-4.273 4.274h-57.817c-.516 0-.981.311-1.178.787s-.088 1.025.276 1.389l11.765 11.765zm-13.122-30.042c.498.497 1.305.497 1.803 0l.339-.339c.497-.498.497-1.305 0-1.803s-1.306-.498-1.803 0l-.339.339c-.498.497-.498 1.305 0 1.803zm-12.226 12.226c.497.498 1.305.498 1.803 0l8.92-8.92c.497-.498.497-1.305 0-1.803s-1.306-.498-1.803 0l-8.92 8.92c-.498.498-.498 1.305 0 1.803z"/></g></g><g clip-path="url(#C)"><path d="M421.415 221.699a5.51 5.51 0 0 0-3.924-1.624 5.51 5.51 0 0 0-3.923 1.624l-11.765 11.764v-57.817a5.56 5.56 0 0 0-5.549-5.549c-3.059 0-5.548 2.49-5.548 5.549v57.817l-11.765-11.764c-2.163-2.164-5.683-2.164-7.847-.001-1.048 1.049-1.625 2.442-1.625 3.924s.577 2.876 1.625 3.924l21.237 21.237a5.51 5.51 0 0 0 3.924 1.625 5.51 5.51 0 0 0 3.923-1.625l21.237-21.237a5.51 5.51 0 0 0 1.625-3.924 5.51 5.51 0 0 0-1.625-3.923z" class="B"/><g class="I"><path d="M370.192 230.447c-1.289-1.289-1.998-3.002-1.998-4.825a6.78 6.78 0 0 1 1.998-4.825c2.661-2.661 6.99-2.66 9.651 0l9.587 9.588v-54.739c.001-3.762 3.062-6.823 6.824-6.823 1.821 0 3.534.71 4.824 2s2 3.003 2 4.823v54.739l9.588-9.588a6.77 6.77 0 0 1 4.826-1.996c1.824-.001 3.537.708 4.824 1.996s1.999 3.002 1.999 4.825-.709 3.536-1.998 4.825l-21.237 21.237a6.78 6.78 0 0 1-9.65.001l-21.238-21.238zm7.848-7.847a4.28 4.28 0 0 0-6.045 0c-.807.807-1.252 1.88-1.252 3.022a4.25 4.25 0 0 0 1.252 3.022l21.237 21.237c.808.808 1.881 1.252 3.022 1.252a4.24 4.24 0 0 0 3.022-1.252l21.238-21.237a4.24 4.24 0 0 0 1.251-3.022c0-1.141-.444-2.215-1.251-3.022h0-.001c-.805-.806-1.879-1.25-3.022-1.25s-2.216.444-3.022 1.25l-11.764 11.764c-.365.365-.913.474-1.389.277s-.787-.663-.787-1.178l-.001-57.817c0-1.139-.445-2.211-1.253-3.02a4.24 4.24 0 0 0-3.021-1.253 4.28 4.28 0 0 0-4.274 4.273v57.817c0 .516-.31.981-.787 1.178s-1.024.088-1.389-.277L378.04 222.6zm30.042 13.122c-.498-.498-.498-1.305 0-1.803l.339-.339c.498-.497 1.305-.497 1.803 0s.498 1.306 0 1.803l-.339.339c-.498.498-1.305.498-1.803 0zm-12.226 12.226c-.498-.497-.498-1.305 0-1.803l8.92-8.92c.498-.497 1.305-.497 1.803 0s.498 1.306 0 1.803l-8.92 8.92c-.498.498-1.305.498-1.803 0z"/></g></g><defs><clipPath id="A"><path fill="#fff" transform="matrix(.707107 -.707107 .707107 .707107 187 53.2548)" d="M0 0h64v64H0z"/></clipPath><clipPath id="B"><path fill="#fff" transform="matrix(-.707107 -.707107 -.707107 .707107 281.51 354.255)" d="M0 0h64v64H0z"/></clipPath><clipPath id="C"><path fill="#fff" transform="matrix(.707107 .707107 -.707107 .707107 396.255 166)" d="M0 0h64v64H0z"/></clipPath><path id="D" d="M362.424 326.685c4.308 1.458 12.719 5.43 12.309 14.545a1.01 1.01 0 0 0 .285.75l5.819 5.989a2.03 2.03 0 0 1 .576 1.405 2.03 2.03 0 0 1-.576 1.405l-2.16 2.282c-.887.946-1.383 2.156-1.398 3.411l-.079 5.472c0 .84-.359 1.646-.999 2.24s-1.507.929-2.411.929h-2.41c-1.205 0-2.362.445-3.214 1.237s-1.332 1.867-1.332 2.988v4.478a1.02 1.02 0 0 1-.333.747c-.213.198-.502.31-.804.31h-14.15c-.302 0-.591-.112-.804-.31a1.02 1.02 0 0 1-.333-.747v-13.932c.001-.4-.12-.792-.35-1.13a2.22 2.22 0 0 0-.946-.782c-4.035-1.817-15.821-8.281-11.605-20.322 1.047-3.244 3.152-6.104 6.025-8.187"/><path id="E" d="M347.875 339.762c0-3.57-2.364-6.549-3.648-8.756-.71-1.203-1.096-2.548-1.125-3.919 0-4.69 4.603-8.45 9.649-8.45"/><path id="F" d="M357.708 339.762c0-3.57 2.375-6.549 3.648-8.756.692-1.207 1.059-2.552 1.069-3.919 0-4.69-4.547-8.45-9.639-8.45"/></defs></svg>