<svg xmlns="http://www.w3.org/2000/svg" width="300" height="161" fill="none" xmlns:v="https://vecta.io/nano"><path d="M245.463 26.554h.009.008l1.739-.02c14.123-.024 25.518 6.409 35.792 16.101l.007.007.008.007 1.047.96c8.494 8.065 14.009 20.867 14.419 32.556.25 14.972-5.572 28.156-12.198 41.739-6.6 13.529-12.046 25.974-13.965 41.218h-.024-.113-.113-.113-.113-.113-.113-.113-.113-.113-.113-.113-.113-.113-.113-.113-.113-.113-.113-.113-.113-.113-.113-.113-.113-.113-.113-.113-.113-.113-.113-.113-.113-.113-.113-.113-.113-.113-.114-.113-.113-.113-.113-.113-.113-.113-.113-.113-.113-.113-.113-.113-.113-.113-.113-.114-.113-.113-.113-.113-.113-.113-.113-.113-.113-.113-.113-.114-.113-.113-.113-.113-.113-.113-.113-.113-.113-.114-.113-.113-.113-.113-.113-.113-.113-.114-.113-.113-.113-.113-.113-.113-.114-.113-.113-.113-.113-.113-.114-.113-.113-.113-.113-.113-.114-.113-.113-.113-.113-.114-.113-.113-.113-.113-.114-.113-.113-.113-.114-.113-.113-.113-.114-.113-.113-.113-.114-.113-.113-.113-.114-.113-.113-.113-.114-.113-.113-.114-.113-.113-.114-.113-.113-.113-.114-.113-.113-.114-.113-.114-.113-.113-.114-.113-.113-.114-.113-.113-.114-.113-.114-.113-.113-.114-.113-.114-.113-.114-.113-.113-.114-.113-.114-.113-.114-.113-.114-.113-.114-.113-.114-.113-.114-.113-.114-.113-.114-.113-.114-.113-.114-.113-.114-.113-.114-.114-.113-.114-.113-.114-.113-.114-.114-.113-.114-.114-.113-.114-.113-.114-.114-.113-.114-.114-.113-.114-.114-.113-.114-.114-.114-.113-.114-.114-.114-.113-.114-.114-.114-.113-.114-.114-.114-.113-.114-.114-.114-.114-.113-.114-.114-.114-.114-.114-.114-.113-.114-.114-.114-.114-.114-.114-.114-.114-.114-.114-.113-.114-.114-.114-.114-.114-.114-.114-.114-.114-.114-.114-.114-.114-.114-.115-.114-.114-.114-.114-.114-.114-.114-.114-.114-.115-.114-.114-.114-.114-.114-.114-.115-.114-.114-.114-.114-.115-.114-.114-.114-.115-.114-.114-.114-.115-.114-.114-.115-.114-.114-.115-.114-.114-.115-.114-.114-.115-.114-.115-.114-.114-.115-.114-.115-.114-.115-.114-.115-.114-.115-.114-.115-.114-.115-.114-.115-.114-.115-.115-.114-.115-.114-.115-.115-.114-.115-.115-.114-.115-.115-.114-.115-.115-.114-.115-.115-.115-.114-.115-.115-.115-.114-.115-.115-.115-.115-.115-.114-.115-.115-.115-.115-.115-.115-.115-.115-.115-.115-.115-.114-.115-.115-.115-.115-.116-.115-.115-.115-.115-.115-.115-.115-.115-.115-.115-.115-.116-.115-.115-.115-.115-.116-.115-.115-.115-.115-.116-.115-.115-.116-.115-.115-.115-.116-.115-.115-.116-.115-.116-.115-.115-.116-.115-.116-.115-.116-.115-.116-.115-.116-.115-.116-.115-.116-.115-.116-.116-.115-.116-.115-.116-.116-.115-.116-.116-.115-.116-.116-.116-.115-.116-.116-.116-.115-.116-.116-.116-.116-.116-.115-.116-.116-.116-.116-.116-.116-.116-.116-.116-.116-.116-.116-.116-.116-.116-.116-.116-.116-.116-.116-.117-.116-.116-.116-.116-.116-.117-.116-.116-.116-.117-.082l-.478-10.043-.017-.358-.178-.312-.11-.194c-.766-1.346-1.297-2.28-1.989-2.971-.723-.723-1.588-1.153-2.739-1.723l-.168-.083-.251-.125-.278-.026c-1.744-.161-1.803-.163-3.702-.136l-2.08-.027h-.007l-4.367-.008c-3.05-.048-4.338-.076-5.146-.247-.575-.121-.822-.281-1.716-.99-.604-.765-.915-1.36-1.095-1.95-.197-.645-.271-1.383-.284-2.507v-.005l-.023-1.474v-.006L192 134.35v-.008l-.055-3.328-.071-5.254h0l-.079-5.069-.014-1.59v-.008-.007l-.027-1.467-.001-.008-.016-1.293-.001-.027-.001-.028-.006-.121c-.02-.457-.048-1.114-.393-1.71-.188-.325-.426-.571-.64-.768a16.72 16.72 0 0 0-.723-.611l-.03-.024-.329-.268-.421-.056c-1.601-.212-1.665-.216-3.497-.239l-1.991-.063-.011-.001-2.095-.051h-.009l-2.108-.064h0l-3.415-.095c.436-1.639 1.15-3.186 1.958-4.937l.182-.394.003-.008.628-1.383 1.997-4.378.001-.001 7.631-17.086.552-1.262.003-.008.003-.008c1.38-3.253 1.981-6.201 2.33-9.632 1.292-10.893 6.169-21.334 13.502-29.455h0l.008-.009 1.226-1.38c10.236-10.888 24.544-15.689 39.372-15.698z" fill="#163b44" stroke="#f27261" stroke-width="3"/><path d="M251.603 40.865c2.481 1.743 4.712 3.844 6.424 6.361v1.093l1.123-.077c5.664-.22 9.796 1.394 14.153 5.006 3.603 3.5 6.505 8.627 6.744 13.711.462 2.605 1.463 3.497 3.222 5.375 3.272 3.722 3.581 7.904 3.369 12.685-.516 5.191-3.277 8.9-7.216 12.209-4.741 3.533-9.678 3.611-15.386 2.983-4.069-1.095-7.267-3.811-9.832-7.101-.82-1.912-.82-1.912-1.093-3.277l-.921-.023c-4.146-.259-7.115-1.722-9.901-4.824-1.57-2.243-2.92-4.226-2.731-7.067.444-1.195.444-1.195 1.536-2.287 1.878-.239 1.878-.239 3.824 0 .956 1.195.956 1.195 1.638 2.731 1.151 2.197 2.017 3.449 4.37 4.37 2.3.103 4.23-.101 6.18-1.366.884-1.31 1.352-2.459 1.911-3.926.538-1.295.538-1.295 1.195-2.356 1.946-.683 1.946-.683 3.824-.546 1.058.546 1.058.546 1.639 1.639.582 3.569-.84 6.347-2.732 9.286-1.536 1.434-1.536 1.434-2.731 2.185.141 1.905.691 2.317 2.151 3.653 3.137 2.369 6.023 2.058 9.866 1.809 3.024-.934 4.718-2.979 6.555-5.462.774-1.548.639-2.884.649-4.609l.023-1.91c.005-1.769.005-1.769-1.218-3.314l-.888 1.605c-1.297 1.673-1.297 1.673-2.936 2.287-1.638-.068-1.638-.068-2.97-.922-.853-1.331-.853-1.331-.819-2.834.512-1.775.512-1.775 1.365-3.755 1.258-3.25 1.412-6.9.389-10.24-1.685-3.622-4.394-5.964-7.797-7.991-2.447-.812-5.043-.694-7.596-.779-2.008-.373-2.617-.925-3.875-2.499l-1.024-1.605c-2.031-2.927-4.743-5.214-8.262-6.043-4.769-.568-8.613-.103-12.563 2.731-2.51 2.191-4.339 4.872-4.916 8.193-.051 1.911-.063 3.8.012 5.71.069 2.074.082 2.89-1.105 4.669-1.877.273-1.877.273-3.823 0-1.399-1.534-1.624-2.471-1.741-4.54l.102-1.468c-3.93.973-7.457 1.988-10.005 5.307-1.995 3.399-2.037 7.029-1.143 10.803 1.269 3.476 3.494 5.252 6.778 6.832 1.47.503 2.835.813 4.37 1.092l.169-1.227c.719-2.864 2.903-4.893 5.215-6.64 2.921-1.693 6.05-1.899 9.364-1.419 1.093 1.093 1.093 1.093 1.298 2.97-.205 1.946-.205 1.946-.99 2.936-1.342.622-2.415.863-3.858 1.127-1.7.356-2.438.599-3.858 1.673-1.196 2.549-1.266 4.919-.785 7.681.911 1.732 2.048 2.936 3.824 3.824a56.95 56.95 0 0 0 2.82.096l1.722.04 3.576.051c4.603.122 8.14.986 11.443 4.354l.899.882c2.277 3.061 2.729 5.892 2.699 9.593l.005 1.298-.009 2.695.01 4.135-.006 2.626.01 1.25c-.016 1.155-.016 1.155-.228 3.024-1.895 1.263-2.686 1.371-4.916 1.092-1.38-1.304-1.628-2.083-1.831-3.985l.009-2.122-.021-2.323.008-3.639-.021-3.528.005-2.125c-.439-2.555-1.228-3.419-3.065-5.22-1.536-.512-2.576-.634-4.173-.68l-1.5-.055-3.103-.094c-5.363-.201-8.486-1.247-12.429-4.968-1.906-2.087-2.829-3.884-2.829-6.766l-1.242-.124c-5.379-.691-9.367-2.34-12.892-6.568-3.638-5.178-4.573-9.925-3.892-16.25.478-1.841 1.175-3.311 2.185-4.916l.664-1.133c2.152-3.275 5.083-5.424 8.622-7.06 1.224-.222 2.454-.416 3.687-.58 1.819-.267 1.819-.267 3.414-1.058 1.045-1.532 1.738-2.957 2.448-4.655 1.98-4.672 5.419-7.387 9.911-9.581 6.456-2.393 13.583-1.688 19.453 1.867z" fill="#f27261"/><path d="M252.432 57.008c2.928 1.852 4.557 4.641 6.077 7.681.335 2.97.507 5.255-1.195 7.784-1.536.956-1.536.956-3.004.922-1.263-.512-1.263-.512-2.356-1.605l-.273-2.663c-.115-1.938-.345-3.315-1.365-4.984-1.874-1.388-3.747-1.335-6.009-1.092-1.323 1.029-2.06 1.972-2.902 3.414-.921.956-.921.956-2.867 1.161-1.878-.205-1.878-.205-2.97-1.297-.314-2.283-.168-3.871 1.058-5.804 3.928-4.861 10.145-6.252 15.806-3.516z" fill="#f8ad89"/><path d="M53.433 26.536h.004l2.086.013c12.737.224 24.82 4.189 34.576 12.435l.008.007.008.007 1.335 1.096c9.352 7.989 16.392 21.11 17.376 33.453l.002.014c.595 6.684 3.054 11.977 5.768 17.695l1.342 2.9h0l2.63 5.67c1.468 3.161 2.866 6.355 4.233 9.574l.002.005.592 1.383.641 1.514-5.316.133-2.083.037-.009.001h-.009l-1.991.058-.009.001-1.838.043-.096.002-.096.015c-.876.134-1.669.29-2.388.716s-1.228 1.044-1.753 1.728l-.21.273-.069.337-.015.073c-.105.509-.183.885-.214 1.286-.031.393-.017.797.003 1.365l.002.052-.006 1.468v.01.01l.016 1.602-.022 3.37v.008l.008 5.34-.021 5.128v.017l.001.016.021 1.588c-.014 1.315-.033 2.055-.195 2.719-.138.567-.401 1.146-1.031 1.98-.884.634-1.498.915-2.107 1.069-.699.177-1.483.213-2.847.241h-.008l-2.114.054-3.327.072h-.001l-3.226.079-1.943.041-.055.001-.055.006c-1.839.174-3.285.398-5.094 1.456l-.418.245-.196.443-.031.07c-.888 2.007-1.424 3.218-1.654 5.292-.196 1.766-.176 4.197-.107 8.493h-.057-.113-.113-.113-.113-.113-.113-.113-.113-.113-.113-.113-.113-.113-.113-.113-.113-.113-.113-.113-.113-.113-.113-.113-.113-.113-.113-.113-.113-.113-.113-.113-.113-.113-.113-.113-.113-.113-.113-.113-.113-.113-.113-.113-.113-.113-.113-.113-.113-.113-.113-.113-.113-.113-.113-.113-.113-.113-.113-.113-.113-.113-.113-.113-.113-.113-.113-.113-.113-.113-.113-.113-.113-.113-.113-.113-.113-.113-.113-.113-.113-.113-.113-.113-.113-.113-.113-.113-.113-.113-.113-.113-.113-.113-.113-.113-.113-.113-.113-.113-.113-.113-.113-.113-.113-.113-.113-.113-.113-.113-.113-.113-.113-.113-.113-.113-.113-.113-.113-.113-.113-.113-.113-.113-.113-.113-.113-.113-.113-.113-.113-.113-.113-.113-.113-.113-.113-.113-.113-.113-.113-.113-.113-.113-.113-.113-.113-.113-.113-.113-.113-.113-.113-.113-.113-.113-.113-.113-.113-.113-.113-.113-.113-.113-.114-.113-.113-.114-.113-.113-.114-.114-.113-.114-.114-.113-.114-.114-.113-.114-.114-.114-.113-.114-.114-.114-.114-.114-.114-.113-.114-.113-.114-.114-.114-.114-.114-.114-.114-.114-.114-.114-.114-.114-.114-.114-.114-.114-.114-.114-.114-.114-.114-.114-.114-.114-.114-.114-.114-.114-.114-.114-.114-.114-.114-.114-.114-.114-.114-.114-.114-.114-.114-.114-.114-.114-.114-.114-.114-.114-.114-.114-.114-.114-.114-.114-.114-.114-.114-.114-.114-.114-.114-.114-.114-.114-.114-.114-.114-.114-.114-.114-.114-.114-.114-.114-.114-.114-.114-.114-.114-.114-.114-.114-.114-.114-.114-.114-.114-.114-.114-.114-.114-.114-.114-.114-.114-.114-.114-.114-.114-.114-.114-.114-.114-.114-.114-.114-.114-.114-.114-.114-.114-.114-.114-.114-.114-.114-.114-.114-.114-.114-.114-.114-.114-.114-.114-.114-.114-.114-.114-.114-.114-.114-.114-.114-.114-.115-.114-.114-.115-.115-.114-.115-.115-.115-.115-.115-.115-.115-.115-.115-.115-.115-.115-.115-.115-.115-.115-.115-.115-.115-.115-.115-.115-.115-.115-.115-.115-.115-.115-.115-.115-.115-.115-.115-.115-.115-.115-.115-.115-.115-.115-.115-.115-.115-.115-.115-.115-.115-.115-.115-.115-.115-.115-.115-.115-.115-.115-.115-.115H39h-.115-.115-.115-.115-.115-.115-.115-.115-.115-.115-.115-.115-.115-.115-.115-.115-.115-.115-.115-.115-.115-.115-.115-.115-.115-.115-.116-.115-.115-.115-.116-.115-.116-.115-.115-.116-.116-.116-.116-.116-.116-.116-.116-.116-.116-.116-.116-.116-.116-.116-.116-.116-.116-.116-.116-.116-.116-.116-.116-.116-.116-.116-.116-.116-.116-.116-.116-.116-.116-.116-.116-.116-.116-.116-.116-.116-.116-.116-.116-.116-.116-.116-.116-.116-.116-.116-.116-.116-.116-.116-.116-.116-.116-.116-.116-.104l-1.447-9.647-.012-.083-.021-.08c-.886-3.331-.894-3.357-1.95-6.605l-.008-.023-.008-.023-.397-1.098-.002-.005-.403-1.102-.005-.013-.397-1.117-.002-.006c-2.404-6.685-5.486-12.999-8.574-19.269-9.123-18.55-17.511-37.093-10.684-57.255 4.987-13.801 15.589-25.42 28.763-31.96 6.751-3.144 13.196-4.481 20.676-4.418z" fill="#163b44" stroke="#f27261" stroke-width="3"/><path d="M42.882 64c1.42.207 1.713.36 2.561 1.466.145.85.145.85.125 1.804l-.012 1.037-.032 1.077-.018 1.092-.062 2.665h5.55l-.045-1.634-.035-2.123-.032-1.077-.013-1.037-.02-.954c.189-1.103.523-1.479 1.426-2.129 1.521.053 1.521.053 2.988.426.867 1.299.959 1.535.937 2.989l-.008.978-.022 1.015-.012 1.03-.042 2.514h5.123l-.06-1.525-.047-1.992-.043-1.004c-.042-2.465-.042-2.465.942-3.8 1.135-.783 1.698-.874 3.05-.631.893.682 1.243 1.047 1.426 2.168l-.02 1.008-.013 1.095-.033 1.138-.018 1.153-.062 2.817 1.124-.045c5.09-.119 5.09-.119 6.987 1.324 3.374 3.377 3.374 3.377 3.457 6.027l-.015 1.514-.012 1.524-.015 1.167.724-.02 3.251-.06 1.14-.032 1.096-.013 1.009-.02c.89.145.89.145 1.651.698.52.727.52.727.493 2.245-.4 1.465-.4 1.465-1.059 1.98-1.516.489-2.997.427-4.571.391l-.964-.012-2.345-.042v5.116l1.528-.06 1.994-.047 1.006-.043c2.469-.042 2.469-.042 3.805.941.784 1.133.875 1.696.632 3.046-.683.892-1.049 1.241-2.171 1.424l-1.009-.02-1.096-.012-1.14-.033-1.155-.017-2.821-.063v5.543l1.729-.045 2.246-.035 1.14-.033 1.096-.012 1.009-.021c.89.146.89.146 1.652.698.518.727.518.727.465 2.245-.374 1.466-.374 1.466-1.654 2.318-.812.097-.812.097-1.713.084l-.98-.009-1.016-.021-1.031-.012-2.517-.042.107 1.679c-.005 2.844-1.014 4.996-2.775 7.194-3.04 2.416-5.41 2.894-9.285 2.638l.045 1.634.035 2.123.033 1.077.013 1.037.02.954c-.188 1.097-.546 1.463-1.426 2.128-1.281.187-1.281.187-2.561 0-.865-.763-1.24-1.373-1.381-2.525l.021-2.911.018-1.024.063-2.493h-5.123l.045 1.526.035 1.991.032 1.005c.019 1.488.025 2.465-.678 3.8-.715.631-.715.631-1.996.818-1.42-.207-1.713-.36-2.561-1.466-.145-.849-.145-.849-.125-1.803l.013-1.037.032-1.077.017-1.091.063-2.666h-5.55l.045 1.634.035 2.123.032 1.077.012 1.037.02.954c-.188 1.097-.546 1.463-1.426 2.128-1.281.187-1.281.187-2.561 0-.865-.763-1.24-1.373-1.381-2.525l.021-2.911.017-1.024.063-2.493-.907.06c-2.808.107-4.913-.053-7.204-1.765-1.928-1.809-3.315-3.637-3.498-6.35l.03-1.244.023-1.261.03-.951-1.636.045-2.126.035-1.078.033-1.038.012-.955.021c-1.105-.189-1.472-.53-2.131-1.425-.133-1.518-.133-1.518 0-2.984.854-.852.854-.852 1.695-.949l1.016.013 1.101.009 1.151.021 1.161.012 2.842.042v-5.543l-1.636.045-2.126.035-1.078.033-1.038.012-.955.02c-1.099-.187-1.467-.544-2.131-1.424-.275-2.194-.275-2.194.538-3.27.925-.706 1.396-.717 2.549-.692l1.038.013 1.078.032 1.093.018 2.669.063v-5.116l-1.527.045-1.994.035-1.006.032c-1.481.019-2.471.02-3.807-.662-.63-.729-.63-.729-.79-2.248.16-1.466.16-1.466 1.014-2.318.841-.097.841-.097 1.858-.083l1.101.008 1.151.022 1.161.012 2.842.042-.06-.999c-.1-2.877-.088-5.214 1.768-7.527 2.805-2.62 5.152-3.518 8.96-3.441l.859.03-.045-1.525-.035-1.992-.032-1.004c-.019-1.488-.025-2.465.678-3.8.715-.631.715-.631 1.996-.818zm-8.538 15.961c-.642 1.281-.493 2.602-.496 4.007l-.007.986-.011 3.236-.007 2.246-.008 4.715-.025 6.038-.011 4.643-.01 2.225-.004 3.117-.012.927c.016 1.868.29 3.044 1.445 4.525 1.554 1.035 2.699.973 4.495.963l.989.004 3.239-.001 2.251.002 4.719-.004 6.048.003 4.649-.001 2.23.003 3.118-.006.931.005c1.552-.013 2.76-.054 4.046-.968 1.05-1.573.986-2.779.991-4.6l.013-1.023.023-3.353.015-2.331.017-4.888.049-6.26.022-4.814.021-2.308.007-3.23.024-.961c-.028-1.721-.282-2.417-1.418-3.733-1.515-1.066-3.014-1.167-4.824-1.137l-.987-.009c-1.071-.007-2.141.001-3.212.01l-2.242-.003c-1.564-.001-3.127.005-4.69.017l-6.006.004c-1.542-.005-3.084-.001-4.626.006a333.61 333.61 0 0 1-2.215-.001 228.15 228.15 0 0 0-3.096.018l-.92-.008c-2.039.039-3.078.501-4.512 1.941z" fill="#f27261"/><path d="M41.145 87.022c1.215.377 1.215.377 2.061 1.239.11.864.11.864.116 1.936l.012 1.216-.001 1.316.005 1.349.001 2.828.019 4.334.001 2.744.012 1.314-.008 1.219v1.074c-.197 1.144-.52 1.523-1.426 2.21-1.268.189-1.268.189-2.536 0-1.118-1.196-1.428-2.036-1.439-3.671l-.016-1.159.004-1.241-.007-1.284.001-2.686-.022-4.11.001-2.61-.014-1.242c.029-2.821.029-2.821 1-4.243.915-.586.915-.586 2.236-.533zM57.958 87c1.635.525 1.803.597 2.618 1.933l.968 1.954.533 1.057 1.142 2.294 2.052 3.927 1.434 2.697.699 1.297.642 1.231.575 1.086c.48 1.277.529 2.254.408 3.605-.703.813-.703.813-1.73 1.26-1.27.105-1.27.105-2.594-.42l-.845-1.895c-.693-1.273-.995-1.784-2.423-2.235-1.347-.117-2.65-.131-4.002-.097l-1.408-.009c-1.144-.005-2.285.008-3.429.036l-.387 1.182c-.535 1.499-.985 2.379-2.207 3.438-1.567 0-1.567 0-3.026-.42-.865-1.26-.865-1.26-.821-2.357.518-1.9 1.364-3.551 2.276-5.3l.571-1.11 1.197-2.312 1.825-3.542 1.164-2.25.549-1.07.52-.994.453-.873c.941-1.509 1.379-2.011 3.246-2.113z" fill="#f8ad89"/><path d="M57.724 95.74c1.144 1.035 1.892 2.139 2.622 3.496v.874h-4.37c.485-1.524.989-2.961 1.748-4.37z" fill="#163b44"/><g stroke="#f27261" stroke-width="10" stroke-linecap="round"><path d="M112.523 24.038c11.825-14.366 43.123-34.479 73.722 0"/><path d="M189.192 10.266l-2.43 14.694-14.695-2.43" stroke-linejoin="round"/></g></svg>